<svg width="24" height="24" viewBox="0 0 24 24" fill="none" xmlns="http://www.w3.org/2000/svg">
<g id="domain" clip-path="url(#clip0_397_668)">
<path id="Vector" d="M12 7V3H1.99998V21H22V7H12ZM5.99998 19H3.99998V17H5.99998V19ZM5.99998 15H3.99998V13H5.99998V15ZM5.99998 11H3.99998V9H5.99998V11ZM5.99998 7H3.99998V5H5.99998V7ZM9.99998 19H7.99998V17H9.99998V19ZM9.99998 15H7.99998V13H9.99998V15ZM9.99998 11H7.99998V9H9.99998V11ZM9.99998 7H7.99998V5H9.99998V7ZM20 19H12V17H14V15H12V13H14V11H12V9H20V19ZM18 11H16V13H18V11ZM18 15H16V17H18V15Z" fill="#01B574"/>
</g>
<defs>
<clipPath id="clip0_397_668">
<rect width="24" height="24" fill="white"/>
</clipPath>
</defs>
</svg>
