<svg width="82" height="82" viewBox="0 0 82 82" fill="none" xmlns="http://www.w3.org/2000/svg">
<path d="M0 40C0 21.1438 0 11.7157 5.85786 5.85786C11.7157 0 21.1438 0 40 0H42C60.8562 0 70.2843 0 76.1421 5.85786C82 11.7157 82 21.1438 82 40V42C82 60.8562 82 70.2843 76.1421 76.1421C70.2843 82 60.8562 82 42 82H40C21.1438 82 11.7157 82 5.85786 76.1421C0 70.2843 0 60.8562 0 42V40Z" fill="#78D076" fill-opacity="0.2"/>
<path d="M58.4993 37.9767C57.091 37.6646 55.6272 37.5 54.125 37.5C43.3098 37.5 34.4872 46.0311 34.0195 56.731M58.4993 37.9767C58.5 38.382 58.5 38.8059 58.5 39.25V42.75C58.5 47.6505 58.5 50.1007 57.5463 51.9724C56.7074 53.6188 55.3688 54.9574 53.7224 55.7963C51.8507 56.75 49.4005 56.75 44.5 56.75H37.5C36.1724 56.75 35.0246 56.75 34.0195 56.731M58.4993 37.9767C58.4922 33.9102 58.4136 31.7297 57.5463 30.0276C56.7074 28.3812 55.3688 27.0426 53.7224 26.2037C51.8507 25.25 49.4005 25.25 44.5 25.25H37.5C32.5995 25.25 30.1493 25.25 28.2776 26.2037C26.6312 27.0426 25.2926 28.3812 24.4537 30.0276C23.5 31.8993 23.5 34.3495 23.5 39.25V42.75C23.5 47.6505 23.5 50.1007 24.4537 51.9724C25.2926 53.6188 26.6312 54.9574 28.2776 55.7963C29.6422 56.4916 31.3144 56.68 34.0195 56.731M33.125 37.5C31.6753 37.5 30.5 36.3247 30.5 34.875C30.5 33.4253 31.6753 32.25 33.125 32.25C34.5747 32.25 35.75 33.4253 35.75 34.875C35.75 36.3247 34.5747 37.5 33.125 37.5Z" stroke="#78D076" stroke-width="2.38" stroke-linecap="round" stroke-linejoin="round"/>
</svg>
