<svg width="82" height="82" viewBox="0 0 82 82" fill="none" xmlns="http://www.w3.org/2000/svg">
<path d="M0 40C0 21.1438 0 11.7157 5.85786 5.85786C11.7157 0 21.1438 0 40 0H42C60.8562 0 70.2843 0 76.1421 5.85786C82 11.7157 82 21.1438 82 40V42C82 60.8562 82 70.2843 76.1421 76.1421C70.2843 82 60.8562 82 42 82H40C21.1438 82 11.7157 82 5.85786 76.1421C0 70.2843 0 60.8562 0 42V40Z" fill="#78D076" fill-opacity="0.2"/>
<path d="M35.6947 56.75C35.6947 55.1249 35.6947 54.3123 35.755 53.6273C36.4257 46.013 42.5042 39.9761 50.1709 39.3099C50.8607 39.25 51.6788 39.25 53.3151 39.25H57.379M57.379 39.25C57.1143 38.3419 56.5777 37.3826 55.6201 35.6707L53.0135 31.0108C51.8406 28.9141 51.2542 27.8658 50.4202 27.1024C49.6823 26.4271 48.8077 25.916 47.855 25.6034C46.778 25.25 45.5705 25.25 43.1555 25.25L38.806 25.25C36.391 25.25 35.1835 25.25 34.1066 25.6034C33.1538 25.916 32.2793 26.4271 31.5414 27.1024C30.7073 27.8658 30.1209 28.9141 28.9481 31.0108L26.4029 35.5608C25.2924 37.546 24.7372 38.5386 24.5195 39.5898C24.3268 40.5202 24.3268 41.4798 24.5195 42.4102C24.7372 43.4614 25.2924 44.454 26.4029 46.4392L28.9481 50.9892C30.1209 53.0859 30.7073 54.1342 31.5414 54.8976C32.2793 55.5729 33.1538 56.084 34.1066 56.3966C35.1835 56.75 36.391 56.75 38.806 56.75H43.2581C45.6376 56.75 46.8274 56.75 47.8918 56.4055C48.8336 56.1007 49.7001 55.6021 50.4348 54.9424C51.2652 54.1967 51.8571 53.1716 53.0408 51.1215L54.8431 48L55.7131 46.3795C56.7682 44.4142 57.2958 43.4316 57.4971 42.396C57.6754 41.4794 57.6672 40.5366 57.4731 39.6231C57.4466 39.4985 57.4154 39.3747 57.379 39.25ZM35.6947 37.5C34.7215 37.5 33.9326 36.7165 33.9326 35.75C33.9326 34.7835 34.7215 34 35.6947 34C36.6678 34 37.4567 34.7835 37.4567 35.75C37.4567 36.7165 36.6678 37.5 35.6947 37.5Z" stroke="#78D076" stroke-width="2.38" stroke-linecap="round" stroke-linejoin="round"/>
</svg>
